<?xml version="1.0" encoding="utf-8"?>
<!-- Generator: Adobe Illustrator 26.3.1, SVG Export Plug-In . SVG Version: 6.00 Build 0)  -->
<svg version="1.2" baseProfile="tiny" id="g-nft-version3-Artboard_1-paintings-men-img" xmlns="http://www.w3.org/2000/svg" xmlns:xlink="http://www.w3.org/1999/xlink"
	 x="0px" y="0px" viewBox="0 0 1920 1080" overflow="visible" xml:space="preserve">
<g>
	
		<rect style="opacity:0.5;" x="305.507" y="850.984" fill="#0000FF" stroke="#000000" stroke-miterlimit="10" width="63.907" height="58.957"/>
	
		<rect style="opacity:0.5;" x="383.108" y="850.256" fill="#0000FF" stroke="#000000" stroke-miterlimit="10" width="63.907" height="58.957"/>
	
		<rect style="opacity:0.5;" x="460.71" y="850.984" fill="#0000FF" stroke="#000000" stroke-miterlimit="10" width="63.907" height="58.957"/>
	
		<rect style="opacity:0.5;" x="538.311" y="850.256" fill="#0000FF" stroke="#000000" stroke-miterlimit="10" width="63.907" height="58.957"/>
	
		<rect style="opacity:0.5;" x="615.912" y="849.528" fill="#0000FF" stroke="#000000" stroke-miterlimit="10" width="63.907" height="58.957"/>
	
		<rect style="opacity:0.5;" x="693.514" y="850.256" fill="#0000FF" stroke="#000000" stroke-miterlimit="10" width="63.907" height="58.957"/>
	
		<rect style="opacity:0.5;" x="771.115" y="849.528" fill="#0000FF" stroke="#000000" stroke-miterlimit="10" width="63.907" height="58.957"/>
	
		<rect style="opacity:0.5;" x="848.716" y="849.528" fill="#0000FF" stroke="#000000" stroke-miterlimit="10" width="63.907" height="58.957"/>
	
		<rect style="opacity:0.5;" x="849.368" y="776.015" fill="#0000FF" stroke="#000000" stroke-miterlimit="10" width="63.907" height="58.957"/>
	
		<rect style="opacity:0.5;" x="849.368" y="698.862" fill="#0000FF" stroke="#000000" stroke-miterlimit="10" width="63.907" height="58.957"/>
	
		<rect style="opacity:0.5;" x="848.064" y="626.076" fill="#0000FF" stroke="#000000" stroke-miterlimit="10" width="63.907" height="58.957"/>
	
		<rect style="opacity:0.5;" x="848.064" y="551.834" fill="#0000FF" stroke="#000000" stroke-miterlimit="10" width="63.907" height="58.957"/>
	
		<rect style="opacity:0.5;" x="851.977" y="476.137" fill="#0000FF" stroke="#000000" stroke-miterlimit="10" width="63.907" height="58.957"/>
	
		<rect style="opacity:0.5;" x="851.977" y="402.624" fill="#0000FF" stroke="#000000" stroke-miterlimit="10" width="63.907" height="58.957"/>
	
		<rect style="opacity:0.5;" x="853.281" y="329.11" fill="#0000FF" stroke="#000000" stroke-miterlimit="10" width="63.907" height="58.957"/>
	
		<rect style="opacity:0.5;" x="853.281" y="253.413" fill="#0000FF" stroke="#000000" stroke-miterlimit="10" width="63.907" height="58.957"/>
	
		<rect style="opacity:0.5;" x="772.419" y="776.015" fill="#0000FF" stroke="#000000" stroke-miterlimit="10" width="63.907" height="58.957"/>
	
		<rect style="opacity:0.5;" x="772.419" y="698.862" fill="#0000FF" stroke="#000000" stroke-miterlimit="10" width="63.907" height="58.957"/>
	
		<rect style="opacity:0.5;" x="771.115" y="626.076" fill="#0000FF" stroke="#000000" stroke-miterlimit="10" width="63.907" height="58.957"/>
	
		<rect style="opacity:0.5;" x="771.115" y="551.834" fill="#0000FF" stroke="#000000" stroke-miterlimit="10" width="63.907" height="58.957"/>
	
		<rect style="opacity:0.5;" x="775.028" y="476.137" fill="#0000FF" stroke="#000000" stroke-miterlimit="10" width="63.907" height="58.957"/>
	
		<rect style="opacity:0.5;" x="775.028" y="402.624" fill="#0000FF" stroke="#000000" stroke-miterlimit="10" width="63.907" height="58.957"/>
	
		<rect style="opacity:0.5;" x="776.332" y="329.11" fill="#0000FF" stroke="#000000" stroke-miterlimit="10" width="63.907" height="58.957"/>
	
		<rect style="opacity:0.5;" x="776.332" y="253.413" fill="#0000FF" stroke="#000000" stroke-miterlimit="10" width="63.907" height="58.957"/>
	
		<rect style="opacity:0.5;" x="694.818" y="776.743" fill="#0000FF" stroke="#000000" stroke-miterlimit="10" width="63.907" height="58.957"/>
	
		<rect style="opacity:0.5;" x="694.818" y="699.59" fill="#0000FF" stroke="#000000" stroke-miterlimit="10" width="63.907" height="58.957"/>
	
		<rect style="opacity:0.5;" x="693.514" y="626.804" fill="#0000FF" stroke="#000000" stroke-miterlimit="10" width="63.907" height="58.957"/>
	
		<rect style="opacity:0.5;" x="693.514" y="552.562" fill="#0000FF" stroke="#000000" stroke-miterlimit="10" width="63.907" height="58.957"/>
	
		<rect style="opacity:0.5;" x="697.426" y="476.865" fill="#0000FF" stroke="#000000" stroke-miterlimit="10" width="63.907" height="58.957"/>
	
		<rect style="opacity:0.5;" x="697.426" y="403.351" fill="#0000FF" stroke="#000000" stroke-miterlimit="10" width="63.907" height="58.957"/>
	
		<rect style="opacity:0.5;" x="698.731" y="329.838" fill="#0000FF" stroke="#000000" stroke-miterlimit="10" width="63.907" height="58.957"/>
	
		<rect style="opacity:0.5;" x="698.731" y="254.141" fill="#0000FF" stroke="#000000" stroke-miterlimit="10" width="63.907" height="58.957"/>
	
		<rect style="opacity:0.5;" x="617.217" y="776.015" fill="#0000FF" stroke="#000000" stroke-miterlimit="10" width="63.907" height="58.957"/>
	
		<rect style="opacity:0.5;" x="617.217" y="698.862" fill="#0000FF" stroke="#000000" stroke-miterlimit="10" width="63.907" height="58.957"/>
	
		<rect style="opacity:0.5;" x="615.912" y="626.076" fill="#0000FF" stroke="#000000" stroke-miterlimit="10" width="63.907" height="58.957"/>
	
		<rect style="opacity:0.5;" x="615.912" y="551.834" fill="#0000FF" stroke="#000000" stroke-miterlimit="10" width="63.907" height="58.957"/>
	
		<rect style="opacity:0.5;" x="619.825" y="476.137" fill="#0000FF" stroke="#000000" stroke-miterlimit="10" width="63.907" height="58.957"/>
	
		<rect style="opacity:0.5;" x="619.825" y="402.624" fill="#0000FF" stroke="#000000" stroke-miterlimit="10" width="63.907" height="58.957"/>
	
		<rect style="opacity:0.5;" x="621.129" y="329.11" fill="#0000FF" stroke="#000000" stroke-miterlimit="10" width="63.907" height="58.957"/>
	
		<rect style="opacity:0.5;" x="621.129" y="253.413" fill="#0000FF" stroke="#000000" stroke-miterlimit="10" width="63.907" height="58.957"/>
	
		<rect style="opacity:0.5;" x="540.919" y="776.015" fill="#0000FF" stroke="#000000" stroke-miterlimit="10" width="63.907" height="58.957"/>
	
		<rect style="opacity:0.5;" x="540.919" y="698.862" fill="#0000FF" stroke="#000000" stroke-miterlimit="10" width="63.907" height="58.957"/>
	
		<rect style="opacity:0.5;" x="539.615" y="626.076" fill="#0000FF" stroke="#000000" stroke-miterlimit="10" width="63.907" height="58.957"/>
	
		<rect style="opacity:0.5;" x="539.615" y="551.834" fill="#0000FF" stroke="#000000" stroke-miterlimit="10" width="63.907" height="58.957"/>
	
		<rect style="opacity:0.5;" x="543.528" y="476.137" fill="#0000FF" stroke="#000000" stroke-miterlimit="10" width="63.907" height="58.957"/>
	
		<rect style="opacity:0.5;" x="543.528" y="402.624" fill="#0000FF" stroke="#000000" stroke-miterlimit="10" width="63.907" height="58.957"/>
	
		<rect style="opacity:0.5;" x="544.832" y="329.11" fill="#0000FF" stroke="#000000" stroke-miterlimit="10" width="63.907" height="58.957"/>
	
		<rect style="opacity:0.5;" x="544.832" y="253.413" fill="#0000FF" stroke="#000000" stroke-miterlimit="10" width="63.907" height="58.957"/>
	
		<rect style="opacity:0.5;" x="463.318" y="777.471" fill="#0000FF" stroke="#000000" stroke-miterlimit="10" width="63.907" height="58.957"/>
	
		<rect style="opacity:0.5;" x="463.318" y="700.318" fill="#0000FF" stroke="#000000" stroke-miterlimit="10" width="63.907" height="58.957"/>
	
		<rect style="opacity:0.5;" x="462.014" y="627.532" fill="#0000FF" stroke="#000000" stroke-miterlimit="10" width="63.907" height="58.957"/>
	
		<rect style="opacity:0.5;" x="462.014" y="553.29" fill="#0000FF" stroke="#000000" stroke-miterlimit="10" width="63.907" height="58.957"/>
	
		<rect style="opacity:0.5;" x="465.927" y="477.593" fill="#0000FF" stroke="#000000" stroke-miterlimit="10" width="63.907" height="58.957"/>
	
		<rect style="opacity:0.5;" x="465.927" y="404.079" fill="#0000FF" stroke="#000000" stroke-miterlimit="10" width="63.907" height="58.957"/>
	
		<rect style="opacity:0.5;" x="467.231" y="330.566" fill="#0000FF" stroke="#000000" stroke-miterlimit="10" width="63.907" height="58.957"/>
	
		<rect style="opacity:0.5;" x="467.231" y="254.868" fill="#0000FF" stroke="#000000" stroke-miterlimit="10" width="63.907" height="58.957"/>
	
		<rect style="opacity:0.5;" x="383.108" y="777.471" fill="#0000FF" stroke="#000000" stroke-miterlimit="10" width="63.907" height="58.957"/>
	
		<rect style="opacity:0.5;" x="383.108" y="700.318" fill="#0000FF" stroke="#000000" stroke-miterlimit="10" width="63.907" height="58.957"/>
	
		<rect style="opacity:0.5;" x="381.804" y="627.532" fill="#0000FF" stroke="#000000" stroke-miterlimit="10" width="63.907" height="58.957"/>
	
		<rect style="opacity:0.5;" x="384.413" y="553.29" fill="#0000FF" stroke="#000000" stroke-miterlimit="10" width="63.907" height="58.957"/>
	
		<rect style="opacity:0.5;" x="385.717" y="477.593" fill="#0000FF" stroke="#000000" stroke-miterlimit="10" width="63.907" height="58.957"/>
	
		<rect style="opacity:0.5;" x="385.717" y="404.079" fill="#0000FF" stroke="#000000" stroke-miterlimit="10" width="63.907" height="58.957"/>
	
		<rect style="opacity:0.5;" x="387.021" y="330.566" fill="#0000FF" stroke="#000000" stroke-miterlimit="10" width="63.907" height="58.957"/>
	
		<rect style="opacity:0.5;" x="387.021" y="254.868" fill="#0000FF" stroke="#000000" stroke-miterlimit="10" width="63.907" height="58.957"/>
	
		<rect style="opacity:0.5;" x="307.463" y="777.471" fill="#0000FF" stroke="#000000" stroke-miterlimit="10" width="63.907" height="58.957"/>
	
		<rect style="opacity:0.5;" x="307.463" y="700.318" fill="#0000FF" stroke="#000000" stroke-miterlimit="10" width="63.907" height="58.957"/>
	
		<rect style="opacity:0.5;" x="306.159" y="627.532" fill="#0000FF" stroke="#000000" stroke-miterlimit="10" width="63.907" height="58.957"/>
	
		<rect style="opacity:0.5;" x="306.159" y="553.29" fill="#0000FF" stroke="#000000" stroke-miterlimit="10" width="63.907" height="58.957"/>
	
		<rect style="opacity:0.5;" x="310.072" y="477.593" fill="#0000FF" stroke="#000000" stroke-miterlimit="10" width="63.907" height="58.957"/>
	
		<rect style="opacity:0.5;" x="310.072" y="404.079" fill="#0000FF" stroke="#000000" stroke-miterlimit="10" width="63.907" height="58.957"/>
	
		<rect style="opacity:0.5;" x="311.376" y="330.566" fill="#0000FF" stroke="#000000" stroke-miterlimit="10" width="63.907" height="58.957"/>
	
		<rect style="opacity:0.5;" x="311.376" y="254.868" fill="#0000FF" stroke="#000000" stroke-miterlimit="10" width="63.907" height="58.957"/>
	
		<rect style="opacity:0.5;" x="230.514" y="778.198" fill="#0000FF" stroke="#000000" stroke-miterlimit="10" width="63.907" height="58.957"/>
	
		<rect style="opacity:0.5;" x="227.906" y="700.318" fill="#0000FF" stroke="#000000" stroke-miterlimit="10" width="63.907" height="58.957"/>
	
		<rect style="opacity:0.5;" x="229.21" y="628.26" fill="#0000FF" stroke="#000000" stroke-miterlimit="10" width="63.907" height="58.957"/>
	
		<rect style="opacity:0.5;" x="229.21" y="554.018" fill="#0000FF" stroke="#000000" stroke-miterlimit="10" width="63.907" height="58.957"/>
	
		<rect style="opacity:0.5;" x="233.122" y="478.321" fill="#0000FF" stroke="#000000" stroke-miterlimit="10" width="63.907" height="58.957"/>
	
		<rect style="opacity:0.5;" x="233.122" y="404.807" fill="#0000FF" stroke="#000000" stroke-miterlimit="10" width="63.907" height="58.957"/>
	
		<rect style="opacity:0.5;" x="234.427" y="331.293" fill="#0000FF" stroke="#000000" stroke-miterlimit="10" width="63.907" height="58.957"/>
	
		<rect style="opacity:0.5;" x="234.427" y="255.596" fill="#0000FF" stroke="#000000" stroke-miterlimit="10" width="63.907" height="58.957"/>
	
		<rect style="opacity:0.5;" x="152.913" y="778.198" fill="#0000FF" stroke="#000000" stroke-miterlimit="10" width="63.907" height="58.957"/>
	
		<rect style="opacity:0.5;" x="152.913" y="701.045" fill="#0000FF" stroke="#000000" stroke-miterlimit="10" width="63.907" height="58.957"/>
	
		<rect style="opacity:0.5;" x="151.608" y="628.26" fill="#0000FF" stroke="#000000" stroke-miterlimit="10" width="63.907" height="58.957"/>
	
		<rect style="opacity:0.5;" x="151.608" y="554.018" fill="#0000FF" stroke="#000000" stroke-miterlimit="10" width="63.907" height="58.957"/>
	
		<rect style="opacity:0.5;" x="155.521" y="478.321" fill="#0000FF" stroke="#000000" stroke-miterlimit="10" width="63.907" height="58.957"/>
	
		<rect style="opacity:0.5;" x="155.521" y="404.807" fill="#0000FF" stroke="#000000" stroke-miterlimit="10" width="63.907" height="58.957"/>
	
		<rect style="opacity:0.5;" x="156.825" y="331.293" fill="#0000FF" stroke="#000000" stroke-miterlimit="10" width="63.907" height="58.957"/>
	
		<rect style="opacity:0.5;" x="156.825" y="255.596" fill="#0000FF" stroke="#000000" stroke-miterlimit="10" width="63.907" height="58.957"/>
</g>
<style>
#g-nft-version3-Artboard_1-paintings-men-img rect, #g-nft-version3-Artboard_1-paintings-men-img circle, #g-nft-version3-Artboard_1-paintings-men-img path, #g-nft-version3-Artboard_1-paintings-men-img line, #g-nft-version3-Artboard_1-paintings-men-img polyline, #g-nft-version3-Artboard_1-paintings-men-img polygon { vector-effect: non-scaling-stroke; }
</style>
</svg>

