<?xml version="1.0" encoding="utf-8"?>
<!-- Generator: Adobe Illustrator 26.3.1, SVG Export Plug-In . SVG Version: 6.00 Build 0)  -->
<svg version="1.2" baseProfile="tiny" id="g-nft-version3-Artboard_1-nft-men-img" xmlns="http://www.w3.org/2000/svg" xmlns:xlink="http://www.w3.org/1999/xlink"
	 x="0px" y="0px" viewBox="0 0 1920 1080" overflow="visible" xml:space="preserve">
<g>
	
		<rect style="opacity:0.5;" x="994.029" y="246.232" fill="#0000FF" stroke="#000000" stroke-miterlimit="10" width="63.907" height="58.957"/>
	
		<rect style="opacity:0.5;" x="994.029" y="321.929" fill="#0000FF" stroke="#000000" stroke-miterlimit="10" width="63.907" height="58.957"/>
	
		<rect style="opacity:0.5;" x="992.725" y="395.443" fill="#0000FF" stroke="#000000" stroke-miterlimit="10" width="63.907" height="58.957"/>
	
		<rect style="opacity:0.5;" x="992.725" y="468.957" fill="#0000FF" stroke="#000000" stroke-miterlimit="10" width="63.907" height="58.957"/>
	
		<rect style="opacity:0.5;" x="990.116" y="544.654" fill="#0000FF" stroke="#000000" stroke-miterlimit="10" width="63.907" height="58.957"/>
	
		<rect style="opacity:0.5;" x="988.812" y="618.168" fill="#0000FF" stroke="#000000" stroke-miterlimit="10" width="63.907" height="58.957"/>
	
		<rect style="opacity:0.5;" x="988.812" y="692.409" fill="#0000FF" stroke="#000000" stroke-miterlimit="10" width="63.907" height="58.957"/>
	
		<rect style="opacity:0.5;" x="1072.934" y="249.144" fill="#0000FF" stroke="#000000" stroke-miterlimit="10" width="63.907" height="58.957"/>
	
		<rect style="opacity:0.5;" x="1072.934" y="324.841" fill="#0000FF" stroke="#000000" stroke-miterlimit="10" width="63.907" height="58.957"/>
	
		<rect style="opacity:0.5;" x="1071.63" y="398.355" fill="#0000FF" stroke="#000000" stroke-miterlimit="10" width="63.907" height="58.957"/>
	
		<rect style="opacity:0.5;" x="1071.63" y="471.868" fill="#0000FF" stroke="#000000" stroke-miterlimit="10" width="63.907" height="58.957"/>
	
		<rect style="opacity:0.5;" x="1069.022" y="547.565" fill="#0000FF" stroke="#000000" stroke-miterlimit="10" width="63.907" height="58.957"/>
	
		<rect style="opacity:0.5;" x="1067.717" y="621.079" fill="#0000FF" stroke="#000000" stroke-miterlimit="10" width="63.907" height="58.957"/>
	
		<rect style="opacity:0.5;" x="1067.717" y="695.321" fill="#0000FF" stroke="#000000" stroke-miterlimit="10" width="63.907" height="58.957"/>
	
		<rect style="opacity:0.5;" x="1151.84" y="247.688" fill="#0000FF" stroke="#000000" stroke-miterlimit="10" width="63.907" height="58.957"/>
	
		<rect style="opacity:0.5;" x="1151.84" y="323.385" fill="#0000FF" stroke="#000000" stroke-miterlimit="10" width="63.907" height="58.957"/>
	
		<rect style="opacity:0.5;" x="1150.536" y="396.899" fill="#0000FF" stroke="#000000" stroke-miterlimit="10" width="63.907" height="58.957"/>
	
		<rect style="opacity:0.5;" x="1150.536" y="470.413" fill="#0000FF" stroke="#000000" stroke-miterlimit="10" width="63.907" height="58.957"/>
	
		<rect style="opacity:0.5;" x="1147.927" y="546.11" fill="#0000FF" stroke="#000000" stroke-miterlimit="10" width="63.907" height="58.957"/>
	
		<rect style="opacity:0.5;" x="1146.623" y="619.623" fill="#0000FF" stroke="#000000" stroke-miterlimit="10" width="63.907" height="58.957"/>
	
		<rect style="opacity:0.5;" x="1146.623" y="693.865" fill="#0000FF" stroke="#000000" stroke-miterlimit="10" width="63.907" height="58.957"/>
	
		<rect style="opacity:0.5;" x="1228.789" y="246.96" fill="#0000FF" stroke="#000000" stroke-miterlimit="10" width="63.907" height="58.957"/>
	
		<rect style="opacity:0.5;" x="1228.789" y="322.657" fill="#0000FF" stroke="#000000" stroke-miterlimit="10" width="63.907" height="58.957"/>
	
		<rect style="opacity:0.5;" x="1227.485" y="396.171" fill="#0000FF" stroke="#000000" stroke-miterlimit="10" width="63.907" height="58.957"/>
	
		<rect style="opacity:0.5;" x="1227.485" y="469.685" fill="#0000FF" stroke="#000000" stroke-miterlimit="10" width="63.907" height="58.957"/>
	
		<rect style="opacity:0.5;" x="1224.876" y="545.382" fill="#0000FF" stroke="#000000" stroke-miterlimit="10" width="63.907" height="58.957"/>
	
		<rect style="opacity:0.5;" x="1223.572" y="618.896" fill="#0000FF" stroke="#000000" stroke-miterlimit="10" width="63.907" height="58.957"/>
	
		<rect style="opacity:0.5;" x="1223.572" y="693.137" fill="#0000FF" stroke="#000000" stroke-miterlimit="10" width="63.907" height="58.957"/>
	
		<rect style="opacity:0.5;" x="1224.876" y="770.29" fill="#0000FF" stroke="#000000" stroke-miterlimit="10" width="63.907" height="58.957"/>
	
		<rect style="opacity:0.5;" x="1307.043" y="249.144" fill="#0000FF" stroke="#000000" stroke-miterlimit="10" width="63.907" height="58.957"/>
	
		<rect style="opacity:0.5;" x="1307.043" y="324.841" fill="#0000FF" stroke="#000000" stroke-miterlimit="10" width="63.907" height="58.957"/>
	
		<rect style="opacity:0.5;" x="1305.738" y="398.355" fill="#0000FF" stroke="#000000" stroke-miterlimit="10" width="63.907" height="58.957"/>
	
		<rect style="opacity:0.5;" x="1305.738" y="471.868" fill="#0000FF" stroke="#000000" stroke-miterlimit="10" width="63.907" height="58.957"/>
	
		<rect style="opacity:0.5;" x="1303.13" y="547.565" fill="#0000FF" stroke="#000000" stroke-miterlimit="10" width="63.907" height="58.957"/>
	
		<rect style="opacity:0.5;" x="1301.826" y="621.079" fill="#0000FF" stroke="#000000" stroke-miterlimit="10" width="63.907" height="58.957"/>
	
		<rect style="opacity:0.5;" x="1301.826" y="695.321" fill="#0000FF" stroke="#000000" stroke-miterlimit="10" width="63.907" height="58.957"/>
	
		<rect style="opacity:0.5;" x="1303.13" y="772.474" fill="#0000FF" stroke="#000000" stroke-miterlimit="10" width="63.907" height="58.957"/>
	
		<rect style="opacity:0.5;" x="1382.688" y="246.232" fill="#0000FF" stroke="#000000" stroke-miterlimit="10" width="63.907" height="58.957"/>
	
		<rect style="opacity:0.5;" x="1382.688" y="321.929" fill="#0000FF" stroke="#000000" stroke-miterlimit="10" width="63.907" height="58.957"/>
	
		<rect style="opacity:0.5;" x="1381.383" y="395.443" fill="#0000FF" stroke="#000000" stroke-miterlimit="10" width="63.907" height="58.957"/>
	
		<rect style="opacity:0.5;" x="1381.383" y="468.957" fill="#0000FF" stroke="#000000" stroke-miterlimit="10" width="63.907" height="58.957"/>
	
		<rect style="opacity:0.5;" x="1378.775" y="544.654" fill="#0000FF" stroke="#000000" stroke-miterlimit="10" width="63.907" height="58.957"/>
	
		<rect style="opacity:0.5;" x="1377.471" y="618.168" fill="#0000FF" stroke="#000000" stroke-miterlimit="10" width="63.907" height="58.957"/>
	
		<rect style="opacity:0.5;" x="1377.471" y="692.409" fill="#0000FF" stroke="#000000" stroke-miterlimit="10" width="63.907" height="58.957"/>
	
		<rect style="opacity:0.5;" x="1378.775" y="769.562" fill="#0000FF" stroke="#000000" stroke-miterlimit="10" width="63.907" height="58.957"/>
	
		<rect style="opacity:0.5;" x="1462.245" y="246.232" fill="#0000FF" stroke="#000000" stroke-miterlimit="10" width="63.907" height="58.957"/>
	
		<rect style="opacity:0.5;" x="1462.245" y="321.929" fill="#0000FF" stroke="#000000" stroke-miterlimit="10" width="63.907" height="58.957"/>
	
		<rect style="opacity:0.5;" x="1460.941" y="395.443" fill="#0000FF" stroke="#000000" stroke-miterlimit="10" width="63.907" height="58.957"/>
	
		<rect style="opacity:0.5;" x="1460.941" y="468.957" fill="#0000FF" stroke="#000000" stroke-miterlimit="10" width="63.907" height="58.957"/>
	
		<rect style="opacity:0.5;" x="1458.333" y="544.654" fill="#0000FF" stroke="#000000" stroke-miterlimit="10" width="63.907" height="58.957"/>
	
		<rect style="opacity:0.5;" x="1457.028" y="618.168" fill="#0000FF" stroke="#000000" stroke-miterlimit="10" width="63.907" height="58.957"/>
	
		<rect style="opacity:0.5;" x="1457.028" y="692.409" fill="#0000FF" stroke="#000000" stroke-miterlimit="10" width="63.907" height="58.957"/>
	
		<rect style="opacity:0.5;" x="1458.333" y="769.562" fill="#0000FF" stroke="#000000" stroke-miterlimit="10" width="63.907" height="58.957"/>
	
		<rect style="opacity:0.5;" x="1537.238" y="246.96" fill="#0000FF" stroke="#000000" stroke-miterlimit="10" width="63.907" height="58.957"/>
	
		<rect style="opacity:0.5;" x="1537.238" y="322.657" fill="#0000FF" stroke="#000000" stroke-miterlimit="10" width="63.907" height="58.957"/>
	
		<rect style="opacity:0.5;" x="1535.934" y="396.171" fill="#0000FF" stroke="#000000" stroke-miterlimit="10" width="63.907" height="58.957"/>
	
		<rect style="opacity:0.5;" x="1535.934" y="469.685" fill="#0000FF" stroke="#000000" stroke-miterlimit="10" width="63.907" height="58.957"/>
	
		<rect style="opacity:0.5;" x="1533.326" y="545.382" fill="#0000FF" stroke="#000000" stroke-miterlimit="10" width="63.907" height="58.957"/>
	
		<rect style="opacity:0.5;" x="1532.021" y="618.896" fill="#0000FF" stroke="#000000" stroke-miterlimit="10" width="63.907" height="58.957"/>
	
		<rect style="opacity:0.5;" x="1532.021" y="693.137" fill="#0000FF" stroke="#000000" stroke-miterlimit="10" width="63.907" height="58.957"/>
	
		<rect style="opacity:0.5;" x="1533.326" y="770.29" fill="#0000FF" stroke="#000000" stroke-miterlimit="10" width="63.907" height="58.957"/>
	
		<rect style="opacity:0.5;" x="1617.448" y="246.96" fill="#0000FF" stroke="#000000" stroke-miterlimit="10" width="63.907" height="58.957"/>
	
		<rect style="opacity:0.5;" x="1617.448" y="322.657" fill="#0000FF" stroke="#000000" stroke-miterlimit="10" width="63.907" height="58.957"/>
	
		<rect style="opacity:0.5;" x="1616.144" y="396.171" fill="#0000FF" stroke="#000000" stroke-miterlimit="10" width="63.907" height="58.957"/>
	
		<rect style="opacity:0.5;" x="1616.144" y="469.685" fill="#0000FF" stroke="#000000" stroke-miterlimit="10" width="63.907" height="58.957"/>
	
		<rect style="opacity:0.5;" x="1613.535" y="545.382" fill="#0000FF" stroke="#000000" stroke-miterlimit="10" width="63.907" height="58.957"/>
	
		<rect style="opacity:0.5;" x="1612.231" y="618.896" fill="#0000FF" stroke="#000000" stroke-miterlimit="10" width="63.907" height="58.957"/>
	
		<rect style="opacity:0.5;" x="1612.231" y="693.137" fill="#0000FF" stroke="#000000" stroke-miterlimit="10" width="63.907" height="58.957"/>
	
		<rect style="opacity:0.5;" x="1613.535" y="770.29" fill="#0000FF" stroke="#000000" stroke-miterlimit="10" width="63.907" height="58.957"/>
	
		<rect style="opacity:0.5;" x="1693.093" y="246.96" fill="#0000FF" stroke="#000000" stroke-miterlimit="10" width="63.907" height="58.957"/>
	
		<rect style="opacity:0.5;" x="1693.093" y="322.657" fill="#0000FF" stroke="#000000" stroke-miterlimit="10" width="63.907" height="58.957"/>
	
		<rect style="opacity:0.5;" x="1691.789" y="396.171" fill="#0000FF" stroke="#000000" stroke-miterlimit="10" width="63.907" height="58.957"/>
	
		<rect style="opacity:0.5;" x="1691.789" y="469.685" fill="#0000FF" stroke="#000000" stroke-miterlimit="10" width="63.907" height="58.957"/>
	
		<rect style="opacity:0.5;" x="1689.18" y="545.382" fill="#0000FF" stroke="#000000" stroke-miterlimit="10" width="63.907" height="58.957"/>
	
		<rect style="opacity:0.5;" x="1687.876" y="618.896" fill="#0000FF" stroke="#000000" stroke-miterlimit="10" width="63.907" height="58.957"/>
	
		<rect style="opacity:0.5;" x="1687.876" y="693.137" fill="#0000FF" stroke="#000000" stroke-miterlimit="10" width="63.907" height="58.957"/>
	
		<rect style="opacity:0.5;" x="1689.18" y="770.29" fill="#0000FF" stroke="#000000" stroke-miterlimit="10" width="63.907" height="58.957"/>
</g>
<style>
#g-nft-version3-Artboard_1-nft-men-img rect, #g-nft-version3-Artboard_1-nft-men-img circle, #g-nft-version3-Artboard_1-nft-men-img path, #g-nft-version3-Artboard_1-nft-men-img line, #g-nft-version3-Artboard_1-nft-men-img polyline, #g-nft-version3-Artboard_1-nft-men-img polygon { vector-effect: non-scaling-stroke; }
</style>
</svg>

